<svg width="162" height="172" viewBox="0 0 162 172" fill="none" xmlns="http://www.w3.org/2000/svg">
	<path d="M10.8981 129.991C23.774 121.709 38.9466 107.436 33.1753 90.673C30.0486 81.5287 25.7281 73.6908 25.1445 63.8184C24.6359 55.4022 25.8941 47.0074 28.8226 39.1106C40.3708 8.13882 74.7529 -6.56273 105.837 2.78501C134.619 11.4528 154.444 44.8284 142.398 73.9692C135.508 90.7855 132.413 103.752 147.773 116.826C151.933 120.365 162.052 125.692 161.998 131.994C161.998 140.276 145.792 130.238 143.983 128.819C146.017 132.417 166.405 153.687 153.432 155.138C141.525 156.536 130.989 139.864 123.82 132.722C111.769 120.702 113.862 147.279 113.814 152.766C113.814 161.413 107.62 179.005 96.6125 167.548C87.5485 158.12 91.0606 143.033 84.6467 132.55C77.7564 121.034 66.2457 144.045 63.3653 148.253C60.1316 152.965 43.9846 175.686 37.6885 163.56C32.5274 153.714 40.7777 138.327 44.8787 129.429C43.3742 132.663 32.8647 137.433 29.7649 138.996C23.0993 142.646 15.5546 144.382 7.9642 144.013C-8.20964 142.873 4.19512 134.253 10.7214 130.045L10.8981 129.991Z" fill="url(#paint0_linear_2543_270008)" />
	<defs>
		<linearGradient id="paint0_linear_2543_270008" x1="80.9993" y1="0" x2="80.9993" y2="171.306" gradientUnits="userSpaceOnUse">
			<stop offset="0.485" stop-color="#EBC8C8" stop-opacity="0.93" />
			<stop offset="1" stop-color="#BA3A51" />
		</linearGradient>
	</defs>
</svg>
