<svg width="32" height="32" viewBox="0 0 32 32" fill="none" xmlns="http://www.w3.org/2000/svg">
	<path d="M2.90704 24.2802C5.31204 22.7332 8.14604 20.0672 7.06804 16.9362C6.48404 15.2282 5.67704 13.7642 5.56804 11.9202C5.47304 10.3482 5.70804 8.78019 6.25504 7.30519C8.41204 1.52019 14.834 -1.22581 20.64 0.520194C26.016 2.13919 29.719 8.37319 27.469 13.8162C26.182 16.9572 25.604 19.3792 28.473 21.8212C29.25 22.4822 31.14 23.4772 31.13 24.6542C31.13 26.2012 28.103 24.3262 27.765 24.0612C28.145 24.7332 31.953 28.7062 29.53 28.9772C27.306 29.2382 25.338 26.1242 23.999 24.7902C21.748 22.5452 22.139 27.5092 22.13 28.5342C22.13 30.1492 20.973 33.4352 18.917 31.2952C17.224 29.5342 17.88 26.7162 16.682 24.7582C15.395 22.6072 13.245 26.9052 12.707 27.6912C12.103 28.5712 9.08704 32.8152 7.91104 30.5502C6.94704 28.7112 8.48804 25.8372 9.25404 24.1752C8.97304 24.7792 7.01004 25.6702 6.43104 25.9622C5.18601 26.6439 3.77679 26.9681 2.35904 26.8992C-0.661962 26.6862 1.65504 25.0762 2.87404 24.2902L2.90704 24.2802Z" fill="url(#paint0_linear_2030_25192)" />
	<defs>
		<linearGradient id="paint0_linear_2030_25192" x1="16.0008" y1="0" x2="16.0008" y2="31.9971" gradientUnits="userSpaceOnUse">
			<stop offset="0.485" stop-color="#E8E6E6" />
			<stop offset="1" stop-color="#B2B7D0" />
		</linearGradient>
	</defs>
</svg>
